<svg width="16" height="16" viewBox="0 0 16 16" fill="currentColor" xmlns="http://www.w3.org/2000/svg">
<path d="M8.00001 14.6666C4.32396 14.6666 1.33334 11.676 1.33334 7.99998C1.33334 4.32393 4.32396 1.33331 8.00001 1.33331C11.6761 1.33331 14.6667 4.32393 14.6667 7.99998C14.6667 11.676 11.6761 14.6666 8.00001 14.6666ZM8.00001 2.28567C4.84917 2.28567 2.2857 4.84914 2.2857 7.99998C2.2857 11.1508 4.84917 13.7143 8.00001 13.7143C11.1509 13.7143 13.7143 11.1508 13.7143 7.99998C13.7143 4.84914 11.1509 2.28567 8.00001 2.28567Z"/>
<path d="M10.3813 10.8571C10.2595 10.8571 10.1376 10.8106 10.0446 10.7176L5.28276 5.95571C5.0967 5.76965 5.0967 5.46834 5.28276 5.28239C5.46872 5.09643 5.77012 5.09633 5.95608 5.28239L10.7179 10.0442C10.904 10.2303 10.904 10.5316 10.7179 10.7176C10.625 10.8106 10.5032 10.8571 10.3813 10.8571Z"/>
<path d="M5.61937 10.8572C5.4975 10.8572 5.37574 10.8107 5.28276 10.7176C5.0967 10.5316 5.0967 10.2302 5.28276 10.0443L10.0446 5.28243C10.2307 5.09637 10.532 5.09637 10.7179 5.28243C10.9039 5.46838 10.904 5.76979 10.7179 5.95575L5.95608 10.7176C5.8631 10.8107 5.74124 10.8572 5.61937 10.8572Z"/>
</svg>
