<svg width="24" height="24" viewBox="0 0 24 24" fill="none" xmlns="http://www.w3.org/2000/svg">
<path d="M9.5377 17.8512C9.00652 17.8512 8.57617 17.4208 8.57617 16.8896V10.9565C8.57617 10.4253 9.00656 9.995 9.5377 9.995C10.0688 9.995 10.4992 10.4254 10.4992 10.9565V16.8896C10.4993 17.4208 10.0689 17.8512 9.5377 17.8512Z" fill="#A8A8A8"/>
<path d="M13.7691 17.8512C13.238 17.8512 12.8076 17.4208 12.8076 16.8896V10.9565C12.8076 10.4253 13.238 9.995 13.7691 9.995C14.3003 9.995 14.7307 10.4254 14.7307 10.9565V16.8896C14.7307 17.4208 14.3003 17.8512 13.7691 17.8512Z" fill="#A8A8A8"/>
<path d="M19.3461 5.84617H15.5C15.5 3.72191 13.778 2 11.6538 2C9.52961 2 7.80766 3.72191 7.80766 5.84617H3.96152C3.43035 5.84617 3 6.27656 3 6.8077C3 7.33883 3.43039 7.76922 3.96152 7.76922H4.34613V19.5C4.34844 20.88 5.46613 21.9977 6.84613 22H16.4615C17.8415 21.9977 18.9592 20.88 18.9615 19.5V7.76922H19.3461C19.8773 7.76922 20.3077 7.33883 20.3077 6.8077C20.3077 6.27656 19.8773 5.84617 19.3461 5.84617ZM11.6538 3.92309C12.7157 3.92309 13.5769 4.78426 13.5769 5.84617H9.73074C9.73074 4.78422 10.5919 3.92309 11.6538 3.92309ZM17.0384 19.5C17.0384 19.8185 16.78 20.0769 16.4615 20.0769H6.84613C6.52766 20.0769 6.26922 19.8184 6.26922 19.5V7.76922H17.0384V19.5Z" fill="#A8A8A8"/>
</svg>
