<svg width="16" height="16" viewBox="0 0 16 16" fill="currentColor" xmlns="http://www.w3.org/2000/svg">
<path d="M14.4997 7.83874C14.7413 7.56414 14.718 7.14328 14.4475 6.89901L8.48868 1.51327C8.21821 1.26896 7.78461 1.27408 7.51981 1.52481L1.54072 7.18614C1.27594 7.43687 1.26294 7.85714 1.51194 8.12454L1.66185 8.28581C1.91054 8.55314 2.31254 8.58501 2.55914 8.35674L3.00599 7.94341V13.9948C3.00599 14.3661 3.29724 14.6667 3.65642 14.6667H5.98708C6.34626 14.6667 6.63751 14.3661 6.63751 13.9948V9.76128H9.61028V13.9948C9.60514 14.3658 9.86214 14.6664 10.2213 14.6664H12.6912C13.0504 14.6664 13.3417 14.3658 13.3417 13.9945V8.02861C13.3417 8.02861 13.4651 8.14034 13.6173 8.27854C13.7693 8.41654 14.0886 8.30588 14.3303 8.03108L14.4997 7.83874Z"/>
</svg>
