<svg width="16" height="16" viewBox="0 0 16 16" fill="currentColor" xmlns="http://www.w3.org/2000/svg">
<path d="M13 1.33334H3.00001C2.08113 1.33334 1.33334 2.08113 1.33334 3.00001V13C1.33334 13.9189 2.08113 14.6667 3.00001 14.6667H13C13.9189 14.6667 14.6667 13.9189 14.6667 13V3.00001C14.6667 2.08113 13.9189 1.33334 13 1.33334ZM13.5555 13C13.5555 13.3067 13.3061 13.5555 13 13.5555H3.00001C2.69389 13.5555 2.44446 13.3067 2.44446 13V3.00001C2.44446 2.69389 2.69392 2.44446 3.00001 2.44446H13C13.3061 2.44446 13.5555 2.69392 13.5555 3.00001V13Z"/>
<path d="M5.17735 4.45556C5.14957 4.38334 5.11069 4.32777 5.06069 4.27222C5.0329 4.25001 5.00514 4.22777 4.97735 4.20556C4.94402 4.18334 4.91069 4.16668 4.87735 4.15556C4.84402 4.13889 4.81069 4.12777 4.77735 4.12222C4.66623 4.10001 4.55514 4.1111 4.45514 4.15556C4.38847 4.18334 4.32735 4.22222 4.27181 4.27222C4.22181 4.32777 4.18293 4.38334 4.15514 4.45556C4.12735 4.52222 4.11069 4.59444 4.11069 4.66668C4.11069 4.73892 4.12735 4.81113 4.15514 4.8778C4.18293 4.95001 4.22181 5.00558 4.27181 5.06113C4.37735 5.16113 4.52181 5.22225 4.66626 5.22225C4.69959 5.22225 4.73847 5.2167 4.77738 5.21113C4.81071 5.20558 4.84405 5.19446 4.87738 5.1778C4.91071 5.16668 4.94405 5.15001 4.97738 5.1278C5.00517 5.10558 5.03293 5.08334 5.06071 5.06113C5.16071 4.95558 5.22183 4.81113 5.22183 4.66668C5.22178 4.59446 5.20511 4.52222 5.17735 4.45556Z"/>
<path d="M11.3333 4.11111H6.88888C6.58222 4.11111 6.33334 4.35999 6.33334 4.66666C6.33334 4.97333 6.58222 5.22221 6.88888 5.22221H11.3333C11.64 5.22221 11.8889 4.97333 11.8889 4.66666C11.8889 4.35999 11.64 4.11111 11.3333 4.11111Z"/>
<path d="M5.21069 7.88885C5.20514 7.85552 5.19402 7.82219 5.17735 7.78885C5.16623 7.75552 5.14957 7.72219 5.12735 7.68885C5.10514 7.66105 5.0829 7.63332 5.06069 7.60552C5.00514 7.55552 4.94402 7.51665 4.87735 7.48885C4.74402 7.43332 4.58847 7.43332 4.45514 7.48885C4.38847 7.51665 4.32735 7.55552 4.27181 7.60552C4.24959 7.63332 4.22735 7.66105 4.20514 7.68885C4.18293 7.72219 4.16626 7.75552 4.15514 7.78885C4.13847 7.82219 4.12735 7.85552 4.12181 7.88885C4.11626 7.92772 4.11069 7.96665 4.11069 7.99999C4.11069 8.14445 4.17181 8.28885 4.27181 8.39445C4.37735 8.49445 4.52181 8.55559 4.66626 8.55559C4.81071 8.55559 4.95514 8.49445 5.06071 8.39445C5.16071 8.28892 5.22183 8.14445 5.22183 7.99999C5.22178 7.96665 5.21623 7.92779 5.21069 7.88885Z"/>
<path d="M11.3333 7.44446H6.88888C6.58222 7.44446 6.33334 7.69332 6.33334 7.99999C6.33334 8.30666 6.58222 8.55552 6.88888 8.55552H11.3333C11.64 8.55552 11.8889 8.30666 11.8889 7.99999C11.8889 7.69332 11.64 7.44446 11.3333 7.44446Z"/>
<path d="M5.17735 11.1222C5.14957 11.05 5.11069 10.9944 5.06069 10.9389C4.90514 10.7883 4.66069 10.7389 4.45514 10.8222C4.38847 10.85 4.32735 10.8889 4.27181 10.9389C4.22181 10.9944 4.18293 11.0555 4.15514 11.1222C4.12735 11.1889 4.11069 11.2611 4.11069 11.3333C4.11069 11.4833 4.16623 11.6222 4.27181 11.7278C4.37735 11.8328 4.51626 11.8889 4.66626 11.8889C4.81626 11.8889 4.95514 11.8328 5.06071 11.7278C5.16626 11.6222 5.22183 11.4833 5.22183 11.3333C5.22178 11.2611 5.21069 11.1889 5.17735 11.1222Z"/>
<path d="M11.3333 10.7778H6.88888C6.58222 10.7778 6.33334 11.0261 6.33334 11.3333C6.33334 11.6405 6.58222 11.8889 6.88888 11.8889H11.3333C11.64 11.8889 11.8889 11.6405 11.8889 11.3333C11.8889 11.0261 11.64 10.7778 11.3333 10.7778Z"/>
</svg>
