<svg width="16" height="16" viewBox="0 0 16 16" fill="currentColor" xmlns="http://www.w3.org/2000/svg">
<path d="M9.96007 9.15827C9.55787 8.9386 9.09661 8.81393 8.60634 8.81393H7.44101C6.93694 8.81393 6.46381 8.9458 6.05412 9.17673C5.19256 9.66173 4.61069 10.5852 4.61069 11.6442V12.5173H11.4366V11.6442C11.4366 10.5714 10.8397 9.63827 9.96007 9.15827Z"/>
<path d="M13.1776 8.03827H12.2088C11.6432 8.03827 11.116 8.20547 10.6738 8.4936C10.8863 8.633 11.086 8.7958 11.2701 8.97987C11.9817 9.6914 12.3735 10.6377 12.3735 11.6442V12.0549H15.9995V10.8601C15.9995 9.3042 14.7335 8.03827 13.1776 8.03827Z"/>
<path d="M3.79063 8.03827H2.82187C1.26594 8.03827 0 9.3042 0 10.8601V12.0549H3.67313V11.6442C3.67313 10.6377 4.06531 9.6914 4.77687 8.97987C4.95406 8.80267 5.14563 8.64514 5.34937 8.5092C4.9025 8.21174 4.36656 8.03827 3.79063 8.03827Z"/>
<path d="M12.6928 3.79425C12.6879 3.79425 12.6827 3.79428 12.6777 3.79434C11.629 3.803 10.7833 4.7094 10.7924 5.81481C10.8015 6.915 11.6538 7.80393 12.6957 7.80393C12.7007 7.80393 12.7058 7.80393 12.7108 7.80386C13.2251 7.7996 13.7049 7.583 14.062 7.1938C14.4108 6.81366 14.6005 6.31281 14.5962 5.78337C14.5871 4.68322 13.7347 3.79425 12.6928 3.79425Z"/>
<path d="M3.3048 3.79425C3.29984 3.79425 3.29468 3.79428 3.28968 3.79434C2.24099 3.803 1.39524 4.7094 1.40437 5.81481C1.41343 6.915 2.26577 7.80393 3.30768 7.80393C3.31268 7.80393 3.3178 7.80393 3.3228 7.80386C3.83699 7.7996 4.31686 7.583 4.67399 7.1938C5.02284 6.81366 5.21252 6.31281 5.20815 5.78337C5.19906 4.68322 4.34674 3.79425 3.3048 3.79425Z"/>
<path d="M8.02388 3.48267C6.81481 3.48267 5.83139 4.52173 5.83139 5.79923C5.83139 6.72233 6.34514 7.52113 7.08668 7.893C7.37108 8.0358 7.68888 8.11547 8.02388 8.11547C8.35888 8.11547 8.67668 8.0358 8.96108 7.893C9.70261 7.52113 10.2164 6.72233 10.2164 5.79923C10.2164 4.52173 9.23294 3.48267 8.02388 3.48267Z"/>
</svg>
