<svg width="16" height="16" viewBox="0 0 16 16" fill="currentColor" xmlns="http://www.w3.org/2000/svg">
<path d="M14.1105 6.1642C13.8038 6.1642 13.5547 5.91503 13.5547 5.60836V2.97502C13.5547 2.68252 13.3163 2.44418 13.0238 2.44418H10.3905C10.0838 2.44418 9.83466 2.19502 9.83466 1.88834C9.83466 1.58168 10.0838 1.33334 10.3913 1.33334H13.0247C13.9305 1.33334 14.6663 2.07002 14.6663 2.97502V5.60836C14.6663 5.91586 14.418 6.1642 14.1105 6.1642Z"/>
<path d="M1.88918 6.1642C1.58168 6.1642 1.33334 5.91586 1.33334 5.6092V2.97502C1.33334 2.07002 2.06918 1.33334 2.97502 1.33334H5.60836C5.91503 1.33334 6.1642 1.58251 6.1642 1.88918C6.1642 2.19585 5.91586 2.44502 5.60836 2.44502H2.97502C2.68252 2.44502 2.44418 2.68335 2.44418 2.97585V5.6092C2.44418 5.91586 2.19585 6.1642 1.88918 6.1642Z"/>
<path d="M13.0251 14.6667H10.3918C10.0851 14.6667 9.83594 14.4175 9.83594 14.1109C9.83594 13.8041 10.0843 13.555 10.3918 13.555H13.0251C13.3176 13.555 13.5559 13.3167 13.5559 13.0241V10.3908C13.5559 10.0841 13.8043 9.83499 14.1118 9.83499C14.4193 9.83499 14.6668 10.0841 14.6668 10.3908V13.0241C14.6668 13.93 13.9309 14.6667 13.0251 14.6667Z"/>
<path d="M5.60836 14.6666H2.97502C2.06918 14.6666 1.33334 13.9299 1.33334 13.0249V10.3916C1.33334 10.0849 1.58168 9.83572 1.88918 9.83572C2.19668 9.83572 2.44502 10.0849 2.44502 10.3916V13.0249C2.44502 13.3174 2.68335 13.5557 2.97585 13.5557H5.6092C5.91586 13.5557 6.16503 13.8049 6.16503 14.1116C6.16503 14.4183 5.91586 14.6666 5.60836 14.6666Z"/>
<path d="M6.59819 7.53253H3.83318C3.52651 7.53253 3.27734 7.2834 3.27734 6.97673V3.83336C3.27734 3.52669 3.52568 3.27753 3.83318 3.27753H6.59819C6.90486 3.27753 7.154 3.52669 7.154 3.83336V6.97753C7.154 7.2842 6.90566 7.53253 6.59819 7.53253ZM4.38901 6.42171H6.04318V4.3892H4.38901V6.42171Z"/>
<path d="M12.167 12.7225H9.52785C9.22118 12.7225 8.97198 12.4733 8.97198 12.1667V10.3991C8.97198 10.0925 9.22032 9.84325 9.52785 9.84325C9.83452 9.84325 10.0837 10.0925 10.0837 10.3991V11.6108H11.6112V9.94412H10.9545C10.6479 9.94412 10.3987 9.69492 10.3987 9.38825C10.3987 9.08159 10.6479 8.83325 10.9553 8.83325H12.167C12.4737 8.83325 12.7229 9.08245 12.7229 9.38912V12.1667C12.7229 12.4733 12.4745 12.7225 12.167 12.7225Z"/>
<path d="M12.1663 6.66158H9.89373C9.58706 6.66158 9.33786 6.41242 9.33786 6.10575V3.83324C9.33786 3.52657 9.58619 3.2774 9.89373 3.2774H12.1663C12.4729 3.2774 12.7221 3.52657 12.7221 3.83324V6.10575C12.7221 6.41242 12.4737 6.66158 12.1663 6.66158ZM10.4487 5.55074H11.6104V4.38907H10.4487V5.55074Z"/>
<path d="M8.26486 9.18647H3.83318C3.52651 9.18647 3.27734 8.93727 3.27734 8.6306C3.27734 8.32393 3.52568 8.0748 3.83318 8.0748H7.70986V4.33727C7.70986 4.0306 7.9582 3.78143 8.26573 3.78143C8.5724 3.78143 8.82153 4.0306 8.82153 4.33727V8.6298C8.82073 8.93813 8.5724 9.18647 8.26486 9.18647Z"/>
<path d="M9.80587 9.04733C9.4992 9.04733 9.25 8.79813 9.25 8.49146V7.734C9.25 7.42733 9.49833 7.17813 9.80587 7.17813H12.3059C12.6125 7.17813 12.8617 7.42733 12.8617 7.734C12.8617 8.04066 12.6133 8.2898 12.3059 8.2898H10.3617V8.49146C10.3609 8.799 10.1125 9.04733 9.80587 9.04733Z"/>
<path d="M8.01219 11.9999C7.70552 11.9999 7.45639 11.7507 7.45639 11.4441V10.1816C7.45639 9.87493 7.70472 9.62573 8.01219 9.62573C8.31886 9.62573 8.56806 9.87493 8.56806 10.1816V11.4441C8.56806 11.7516 8.31886 11.9999 8.01219 11.9999Z"/>
<path d="M6.47236 12.7223H3.83318C3.52651 12.7223 3.27734 12.4732 3.27734 12.1665V10.1465C3.27734 9.83987 3.52568 9.59067 3.83318 9.59067H6.47236C6.779 9.59067 7.0282 9.83987 7.0282 10.1465V12.1665C7.02733 12.4732 6.779 12.7223 6.47236 12.7223ZM4.38901 11.6107H5.91652V10.7015H4.38901V11.6107Z"/>
</svg>
