<svg width="24" height="24" viewBox="0 0 24 24" fill="currentColor" xmlns="http://www.w3.org/2000/svg">
<path fill-rule="evenodd" clip-rule="evenodd" d="M12.0003 2C11.7079 2 11.4709 2.23702 11.4709 2.52941V4.64706C11.4709 4.93946 11.7079 5.17647 12.0003 5.17647C12.2927 5.17647 12.5297 4.93946 12.5297 4.64706V2.52941C12.5297 2.23702 12.2927 2 12.0003 2ZM18.3357 9.01105C19.8982 10.3603 20.8608 11.6944 20.9009 11.7505C21.033 11.9348 21.033 12.1828 20.9009 12.3671C20.8608 12.4232 19.8982 13.7574 18.3357 15.1066C16.2326 16.9225 14.0417 17.8824 12 17.8824C9.95825 17.8824 7.76738 16.9225 5.66429 15.1066C4.10173 13.7574 3.13921 12.4232 3.09903 12.3671C2.96699 12.1828 2.96699 11.9348 3.09903 11.7505C3.13921 11.6944 4.10173 10.3603 5.66429 9.01105C7.76738 7.19511 9.95825 6.23528 12 6.23528C14.0417 6.23528 16.2326 7.19511 18.3357 9.01105ZM4.19729 12.0585C5.07665 13.1584 8.28642 16.8235 12 16.8235C15.7206 16.8235 18.9245 13.1597 19.8027 12.0591C18.9232 10.9591 15.7135 7.29411 12 7.29411C8.27938 7.29411 5.07548 10.958 4.19729 12.0585ZM8.29365 12.0588C8.29365 10.0154 9.95611 8.35293 11.9995 8.35293C14.043 8.35293 15.7054 10.0154 15.7054 12.0588C15.7054 14.1022 14.043 15.7647 11.9995 15.7647C9.95611 15.7647 8.29365 14.1022 8.29365 12.0588ZM9.35248 12.0588C9.35248 13.5184 10.5399 14.7059 11.9995 14.7059C13.4591 14.7059 14.6466 13.5184 14.6466 12.0588C14.6466 10.5992 13.4591 9.41175 11.9995 9.41175C10.5399 9.41175 9.35248 10.5992 9.35248 12.0588ZM11.4709 19.4706C11.4709 19.1782 11.7079 18.9412 12.0003 18.9412C12.2927 18.9412 12.5297 19.1782 12.5297 19.4706V21.5883C12.5297 21.8806 12.2927 22.1177 12.0003 22.1177C11.7079 22.1177 11.4709 21.8806 11.4709 21.5883V19.4706ZM7.13383 6.44378L5.63612 4.94607C5.42939 4.73934 5.09416 4.73934 4.88738 4.94607C4.68064 5.15281 4.68064 5.48803 4.88738 5.69482L6.38508 7.19253C6.48848 7.29592 6.62401 7.34759 6.75948 7.34759C6.89496 7.34759 7.03049 7.29592 7.13383 7.19253C7.34056 6.98579 7.34056 6.65057 7.13383 6.44378ZM17.6147 16.9251L19.1124 18.4228C19.3191 18.6296 19.3191 18.9648 19.1124 19.1716C19.0091 19.275 18.8735 19.3266 18.738 19.3266C18.6026 19.3266 18.4671 19.275 18.3637 19.1716L16.866 17.6739C16.6593 17.4671 16.6593 17.1319 16.866 16.9251C17.0728 16.7184 17.408 16.7184 17.6147 16.9251ZM7.13383 16.9251C6.9271 16.7183 6.59187 16.7183 6.38508 16.9251L4.88738 18.4228C4.68064 18.6295 4.68064 18.9647 4.88738 19.1715C4.99077 19.2749 5.12625 19.3266 5.26172 19.3266C5.3972 19.3266 5.53273 19.2749 5.63612 19.1715L7.13383 17.6738C7.34057 17.4671 7.34057 17.1319 7.13383 16.9251ZM18.3637 4.94607C18.5705 4.73934 18.9057 4.73934 19.1124 4.94607C19.3192 5.15286 19.3192 5.48809 19.1124 5.69482L17.6147 7.19253C17.5113 7.29592 17.3758 7.34759 17.2403 7.34759C17.1049 7.34759 16.9694 7.29592 16.866 7.19253C16.6593 6.98574 16.6593 6.65052 16.866 6.44378L18.3637 4.94607Z" fill="#C5D1DB"/>
<path d="M20.9009 11.7505L20.7383 11.867L20.7384 11.8671L20.9009 11.7505ZM18.3357 9.01105L18.205 9.16242L18.3357 9.01105ZM20.9009 12.3671L20.7384 12.2506L20.7383 12.2507L20.9009 12.3671ZM18.3357 15.1066L18.205 14.9552L18.3357 15.1066ZM5.66428 15.1066L5.79499 14.9552L5.66428 15.1066ZM3.09902 12.3671L3.26163 12.2507L3.2616 12.2506L3.09902 12.3671ZM3.09902 11.7505L3.2616 11.867H3.26163L3.09902 11.7505ZM5.66428 9.01105L5.79499 9.16242L5.66428 9.01105ZM4.19728 12.0585L4.04095 11.9338L3.94131 12.0586L4.04107 12.1834L4.19728 12.0585ZM19.8027 12.0591L19.959 12.1839L20.0586 12.059L19.9589 11.9342L19.8027 12.0591ZM5.63611 4.94607L5.77753 4.80465L5.63611 4.94607ZM7.13382 6.44378L7.27526 6.30238L7.27524 6.30236L7.13382 6.44378ZM4.88737 4.94607L4.74596 4.80463L4.74594 4.80465L4.88737 4.94607ZM4.88737 5.69482L4.74593 5.83622L4.74594 5.83624L4.88737 5.69482ZM6.38507 7.19253L6.24365 7.33395L6.38507 7.19253ZM7.13382 7.19253L6.9924 7.05111L6.99236 7.05114L7.13382 7.19253ZM19.1124 18.4228L19.2538 18.2814L19.1124 18.4228ZM17.6147 16.9251L17.7562 16.7837L17.6147 16.9251ZM19.1124 19.1716L18.971 19.0302H18.9709L19.1124 19.1716ZM18.3637 19.1716L18.2223 19.313L18.3637 19.1716ZM16.866 17.6739L16.7245 17.8153H16.7246L16.866 17.6739ZM16.866 16.9251L16.7246 16.7837L16.866 16.9251ZM6.38507 16.9251L6.24367 16.7836H6.24365L6.38507 16.9251ZM7.13382 16.9251L7.27526 16.7837L7.27524 16.7836L7.13382 16.9251ZM4.88737 18.4228L5.02879 18.5642L4.88737 18.4228ZM4.88737 19.1715L4.74593 19.3129H4.74594L4.88737 19.1715ZM5.63611 19.1715L5.49469 19.0301L5.63611 19.1715ZM7.13382 17.6738L6.9924 17.5324L7.13382 17.6738ZM19.1124 4.94607L19.2539 4.80467V4.80465L19.1124 4.94607ZM18.3637 4.94607L18.2223 4.80463V4.80465L18.3637 4.94607ZM19.1124 5.69482L18.971 5.5534L19.1124 5.69482ZM17.6147 7.19253L17.7562 7.33395L17.6147 7.19253ZM16.866 7.19253L16.7245 7.33393L16.7246 7.33395L16.866 7.19253ZM16.866 6.44378L16.7246 6.30236L16.866 6.44378ZM11.6709 2.52941C11.6709 2.34747 11.8184 2.2 12.0003 2.2V1.8C11.5975 1.8 11.2709 2.12656 11.2709 2.52941H11.6709ZM11.6709 4.64706V2.52941H11.2709V4.64706H11.6709ZM12.0003 4.97647C11.8184 4.97647 11.6709 4.829 11.6709 4.64706H11.2709C11.2709 5.04991 11.5975 5.37647 12.0003 5.37647V4.97647ZM12.3297 4.64706C12.3297 4.829 12.1822 4.97647 12.0003 4.97647V5.37647C12.4032 5.37647 12.7297 5.04991 12.7297 4.64706H12.3297ZM12.3297 2.52941V4.64706H12.7297V2.52941H12.3297ZM12.0003 2.2C12.1822 2.2 12.3297 2.34747 12.3297 2.52941H12.7297C12.7297 2.12656 12.4032 1.8 12.0003 1.8V2.2ZM21.0635 11.6341C21.0187 11.5715 20.0457 10.2233 18.4664 8.85967L18.205 9.16242C19.7508 10.4972 20.7028 11.8174 20.7383 11.867L21.0635 11.6341ZM21.0635 12.4836C21.2455 12.2297 21.2455 11.888 21.0635 11.634L20.7384 11.8671C20.8205 11.9817 20.8205 12.1359 20.7384 12.2506L21.0635 12.4836ZM18.4664 15.258C20.0457 13.8943 21.0187 12.5462 21.0635 12.4835L20.7383 12.2507C20.7028 12.3003 19.7508 13.6205 18.205 14.9552L18.4664 15.258ZM12 18.0824C14.1046 18.0824 16.3401 17.0939 18.4664 15.258L18.205 14.9552C16.125 16.7511 13.9788 17.6824 12 17.6824V18.0824ZM5.53357 15.258C7.65983 17.0939 9.89533 18.0824 12 18.0824V17.6824C10.0212 17.6824 7.87491 16.7511 5.79499 14.9552L5.53357 15.258ZM2.9364 12.4835C2.98124 12.5462 3.95429 13.8943 5.53357 15.258L5.79499 14.9552C4.24916 13.6205 3.29716 12.3003 3.26163 12.2507L2.9364 12.4835ZM2.93644 11.6341C2.75451 11.888 2.75451 12.2296 2.93644 12.4836L3.2616 12.2506C3.17945 12.136 3.17945 11.9817 3.2616 11.867L2.93644 11.6341ZM5.53357 8.85967C3.95429 10.2233 2.98124 11.5715 2.93641 11.6341L3.26163 11.867C3.29716 11.8174 4.24916 10.4972 5.79499 9.16242L5.53357 8.85967ZM12 6.03528C9.89533 6.03528 7.65983 7.02373 5.53357 8.85967L5.79499 9.16242C7.87491 7.36649 10.0212 6.43528 12 6.43528V6.03528ZM18.4664 8.85967C16.3401 7.02373 14.1046 6.03528 12 6.03528V6.43528C13.9788 6.43528 16.125 7.36649 18.205 9.16242L18.4664 8.85967ZM12 16.6235C10.2071 16.6235 8.51911 15.7371 7.15737 14.6946C5.79873 13.6546 4.78797 12.477 4.35349 11.9336L4.04107 12.1834C4.48594 12.7398 5.51975 13.9448 6.91423 15.0123C8.3056 16.0774 10.0793 17.0235 12 17.0235V16.6235ZM19.6463 11.9344C19.2125 12.4781 18.2035 13.6555 16.8456 14.6952C15.4847 15.7373 13.7965 16.6235 12 16.6235V17.0235C13.9241 17.0235 15.6981 16.0778 17.0888 15.0128C18.4826 13.9455 19.5147 12.7407 19.959 12.1839L19.6463 11.9344ZM12 7.49411C13.7929 7.49411 15.4808 8.38052 16.8425 9.42293C18.2012 10.463 19.2119 11.6405 19.6465 12.184L19.9589 11.9342C19.514 11.3777 18.4802 10.1728 17.0857 9.10531C15.6943 8.04021 13.9206 7.09411 12 7.09411V7.49411ZM4.35361 12.1832C4.78749 11.6395 5.79646 10.4622 7.1543 9.42239C8.5152 8.38029 10.2035 7.49411 12 7.49411V7.09411C10.0759 7.09411 8.30188 8.03985 6.91113 9.10481C5.51733 10.1721 4.48526 11.377 4.04095 11.9338L4.35361 12.1832ZM11.9995 8.15293C9.84565 8.15293 8.09364 9.90493 8.09364 12.0588H8.49364C8.49364 10.1258 10.0666 8.55293 11.9995 8.55293V8.15293ZM15.9054 12.0588C15.9054 9.90493 14.1534 8.15293 11.9995 8.15293V8.55293C13.9325 8.55293 15.5054 10.1258 15.5054 12.0588H15.9054ZM11.9995 15.9647C14.1534 15.9647 15.9054 14.2127 15.9054 12.0588H15.5054C15.5054 13.9918 13.9325 15.5647 11.9995 15.5647V15.9647ZM8.09364 12.0588C8.09364 14.2127 9.84565 15.9647 11.9995 15.9647V15.5647C10.0666 15.5647 8.49364 13.9918 8.49364 12.0588H8.09364ZM11.9995 14.5059C10.6504 14.5059 9.55246 13.4079 9.55246 12.0588H9.15247C9.15247 13.6289 10.4295 14.9059 11.9995 14.9059V14.5059ZM14.4466 12.0588C14.4466 13.4079 13.3487 14.5059 11.9995 14.5059V14.9059C13.5696 14.9059 14.8466 13.6289 14.8466 12.0588H14.4466ZM11.9995 9.61175C13.3487 9.61175 14.4466 10.7097 14.4466 12.0588H14.8466C14.8466 10.4888 13.5696 9.21175 11.9995 9.21175V9.61175ZM9.55246 12.0588C9.55246 10.7097 10.6504 9.61175 11.9995 9.61175V9.21175C10.4295 9.21175 9.15247 10.4888 9.15247 12.0588H9.55246ZM12.0003 18.7412C11.5975 18.7412 11.2709 19.0678 11.2709 19.4706H11.6709C11.6709 19.2887 11.8184 19.1412 12.0003 19.1412V18.7412ZM12.7297 19.4706C12.7297 19.0678 12.4032 18.7412 12.0003 18.7412V19.1412C12.1822 19.1412 12.3297 19.2887 12.3297 19.4706H12.7297ZM12.7297 21.5883V19.4706H12.3297V21.5883H12.7297ZM12.0003 22.3177C12.4032 22.3177 12.7297 21.9911 12.7297 21.5883H12.3297C12.3297 21.7702 12.1822 21.9177 12.0003 21.9177V22.3177ZM11.2709 21.5883C11.2709 21.9911 11.5975 22.3177 12.0003 22.3177V21.9177C11.8184 21.9177 11.6709 21.7702 11.6709 21.5883H11.2709ZM11.2709 19.4706V21.5883H11.6709V19.4706H11.2709ZM5.49469 5.08749L6.9924 6.5852L7.27524 6.30236L5.77753 4.80465L5.49469 5.08749ZM5.02877 5.08751C5.15747 4.95885 5.36607 4.95887 5.49469 5.08749L5.77753 4.80465C5.49268 4.5198 5.03084 4.51983 4.74596 4.80463L5.02877 5.08751ZM5.02881 5.55342C4.90014 5.42472 4.90017 5.21612 5.02879 5.08749L4.74594 4.80465C4.46109 5.0895 4.46112 5.55135 4.74593 5.83622L5.02881 5.55342ZM6.52649 7.05111L5.02879 5.5534L4.74594 5.83624L6.24365 7.33395L6.52649 7.05111ZM6.75947 7.14759C6.67485 7.14759 6.59086 7.11547 6.52649 7.05111L6.24365 7.33395C6.38608 7.47637 6.57314 7.54759 6.75947 7.54759V7.14759ZM6.99236 7.05114C6.92807 7.11547 6.84411 7.14759 6.75947 7.14759V7.54759C6.94579 7.54759 7.13288 7.47638 7.27528 7.33391L6.99236 7.05114ZM6.99238 6.58518C7.12104 6.71388 7.12102 6.92249 6.9924 7.05111L7.27524 7.33395C7.56009 7.0491 7.56006 6.58726 7.27526 6.30238L6.99238 6.58518ZM19.2538 18.2814L17.7562 16.7837L17.4733 17.0665L18.971 18.5643L19.2538 18.2814ZM19.2538 19.313C19.5387 19.0282 19.5386 18.5663 19.2538 18.2814L18.971 18.5642C19.0996 18.6929 19.0996 18.9015 18.971 19.0302L19.2538 19.313ZM18.738 19.5266C18.9244 19.5266 19.1115 19.4554 19.2538 19.313L18.9709 19.0302C18.9066 19.0945 18.8227 19.1266 18.738 19.1266V19.5266ZM18.2223 19.313C18.3647 19.4554 18.5517 19.5266 18.738 19.5266V19.1266C18.6534 19.1266 18.5695 19.0945 18.5051 19.0302L18.2223 19.313ZM16.7246 17.8153L18.2223 19.313L18.5051 19.0302L17.0074 17.5325L16.7246 17.8153ZM16.7246 16.7837C16.4397 17.0686 16.4397 17.5304 16.7245 17.8153L17.0074 17.5325C16.8788 17.4038 16.8788 17.1952 17.0074 17.0665L16.7246 16.7837ZM17.7562 16.7837C17.4713 16.4989 17.0095 16.4989 16.7246 16.7837L17.0074 17.0666C17.1361 16.9379 17.3447 16.9379 17.4733 17.0665L17.7562 16.7837ZM6.52648 17.0665C6.65517 16.9378 6.86378 16.9379 6.9924 17.0665L7.27524 16.7836C6.99039 16.4988 6.52855 16.4988 6.24367 16.7836L6.52648 17.0665ZM5.02879 18.5642L6.52649 17.0665L6.24365 16.7836L4.74594 18.2814L5.02879 18.5642ZM5.0288 19.0301C4.90014 18.9014 4.90017 18.6928 5.02879 18.5642L4.74594 18.2814C4.46109 18.5662 4.46112 19.0281 4.74593 19.3129L5.0288 19.0301ZM5.26171 19.1266C5.17711 19.1266 5.09317 19.0945 5.02879 19.0301L4.74594 19.3129C4.88835 19.4554 5.07537 19.5266 5.26171 19.5266V19.1266ZM5.49469 19.0301C5.43033 19.0945 5.34634 19.1266 5.26171 19.1266V19.5266C5.44804 19.5266 5.63511 19.4554 5.77754 19.3129L5.49469 19.0301ZM6.9924 17.5324L5.49469 19.0301L5.77753 19.3129L7.27524 17.8152L6.9924 17.5324ZM6.99238 17.0665C7.12105 17.1952 7.12102 17.4038 6.9924 17.5324L7.27524 17.8152C7.56009 17.5304 7.56007 17.0685 7.27526 16.7837L6.99238 17.0665ZM19.2539 4.80465C18.969 4.5198 18.5072 4.51983 18.2223 4.80463L18.5051 5.08751C18.6338 4.95885 18.8424 4.95887 18.971 5.08749L19.2539 4.80465ZM19.2539 5.83624C19.5387 5.55139 19.5387 5.08955 19.2539 4.80467L18.971 5.08748C19.0997 5.21617 19.0996 5.42478 18.971 5.5534L19.2539 5.83624ZM17.7562 7.33395L19.2539 5.83624L18.971 5.5534L17.4733 7.05111L17.7562 7.33395ZM17.2403 7.54759C17.4267 7.54759 17.6137 7.47637 17.7562 7.33395L17.4733 7.05111C17.409 7.11547 17.325 7.14759 17.2403 7.14759V7.54759ZM16.7246 7.33395C16.867 7.47636 17.054 7.54759 17.2403 7.54759V7.14759C17.1557 7.14759 17.0718 7.11548 17.0074 7.05111L16.7246 7.33395ZM16.7246 6.30236C16.4397 6.58721 16.4397 7.04905 16.7245 7.33393L17.0074 7.05112C16.8788 6.92243 16.8788 6.71382 17.0074 6.5852L16.7246 6.30236ZM18.2223 4.80465L16.7246 6.30236L17.0074 6.5852L18.5051 5.08749L18.2223 4.80465Z" fill="#C5D1DB"/>
</svg>
